<svg width="33" height="33" viewBox="0 0 33 33" fill="none" xmlns="http://www.w3.org/2000/svg">
<circle cx="16.5" cy="16.5" r="16.5" fill="#FF6965"/>
<path d="M7.64707 22C7.54707 22 7.46207 21.97 7.39207 21.91C7.33207 21.84 7.30207 21.755 7.30207 21.655V11.86C7.30207 11.75 7.33207 11.665 7.39207 11.605C7.46207 11.535 7.54707 11.5 7.64707 11.5H8.39707C8.55707 11.5 8.68707 11.58 8.78707 11.74L11.9521 17.8L15.1471 11.74C15.1671 11.68 15.2071 11.625 15.2671 11.575C15.3371 11.525 15.4221 11.5 15.5221 11.5H16.2571C16.3671 11.5 16.4521 11.535 16.5121 11.605C16.5821 11.665 16.6171 11.75 16.6171 11.86V21.655C16.6171 21.755 16.5821 21.84 16.5121 21.91C16.4421 21.97 16.3571 22 16.2571 22H15.5221C15.4221 22 15.3371 21.97 15.2671 21.91C15.2071 21.84 15.1771 21.755 15.1771 21.655V14.275L12.6721 19.165C12.5721 19.375 12.4121 19.48 12.1921 19.48H11.7271C11.5071 19.48 11.3471 19.375 11.2471 19.165L8.72707 14.275V21.655C8.72707 21.755 8.69207 21.84 8.62207 21.91C8.56207 21.97 8.48207 22 8.38207 22H7.64707ZM19.5563 22C19.4563 22 19.3713 21.97 19.3013 21.91C19.2413 21.84 19.2113 21.755 19.2113 21.655V11.86C19.2113 11.75 19.2413 11.665 19.3013 11.605C19.3713 11.535 19.4563 11.5 19.5563 11.5H25.7513C25.8513 11.5 25.9313 11.535 25.9913 11.605C26.0613 11.665 26.0963 11.75 26.0963 11.86V12.43C26.0963 12.53 26.0663 12.615 26.0063 12.685C25.9463 12.745 25.8613 12.775 25.7513 12.775H20.6513V16.06H25.4213C25.5213 16.06 25.6013 16.095 25.6613 16.165C25.7313 16.225 25.7663 16.31 25.7663 16.42V16.975C25.7663 17.075 25.7313 17.16 25.6613 17.23C25.6013 17.29 25.5213 17.32 25.4213 17.32H20.6513V20.725H25.8713C25.9813 20.725 26.0663 20.755 26.1263 20.815C26.1863 20.875 26.2163 20.96 26.2163 21.07V21.655C26.2163 21.755 26.1813 21.84 26.1113 21.91C26.0513 21.97 25.9713 22 25.8713 22H19.5563Z" fill="white"/>
</svg>
