<svg width="65" height="65" viewBox="0 0 65 65" fill="none" xmlns="http://www.w3.org/2000/svg">
<path fill-rule="evenodd" clip-rule="evenodd" d="M32.5 65C50.4493 65 65 50.4493 65 32.5C65 14.5507 50.4493 0 32.5 0C14.5507 0 0 14.5507 0 32.5C0 50.4493 14.5507 65 32.5 65Z" fill="#455B71"/>
<path fill-rule="evenodd" clip-rule="evenodd" d="M32 21C31.5582 21 31.2 21.3582 31.2 21.8V23.4C31.2 23.8418 31.5582 24.2 32 24.2C32.4418 24.2 32.8 23.8418 32.8 23.4V21.8C32.8 21.3582 32.4418 21 32 21ZM25.6 33C25.6 36.5346 28.4654 39.4 32 39.4C35.5346 39.4 38.4 36.5346 38.4 33C38.4 29.4654 35.5346 26.6 32 26.6C28.4654 26.6 25.6 29.4654 25.6 33ZM36.8 33C36.8 35.651 34.651 37.8 32 37.8C29.349 37.8 27.2 35.651 27.2 33C27.2 30.349 29.349 28.2 32 28.2C34.651 28.2 36.8 30.349 36.8 33ZM31.2 42.6C31.2 42.1582 31.5582 41.8 32 41.8C32.4418 41.8 32.8 42.1582 32.8 42.6V44.2C32.8 44.6418 32.4418 45 32 45C31.5582 45 31.2 44.6418 31.2 44.2V42.6ZM26.5072 40.9138C26.7281 40.5312 27.2174 40.4001 27.6 40.621C27.9826 40.8419 28.1137 41.3312 27.8928 41.7138L27.0928 43.0995C26.8719 43.4821 26.3826 43.6132 26 43.3923C25.6174 43.1714 25.4863 42.6821 25.7072 42.2995L26.5072 40.9138ZM38 22.6077C37.6174 22.3868 37.1281 22.5179 36.9072 22.9005L36.1072 24.2862C35.8863 24.6688 36.0174 25.1581 36.4 25.379C36.7826 25.5999 37.2719 25.4688 37.4928 25.0862L38.2928 23.7005C38.5137 23.3179 38.3826 22.8286 38 22.6077ZM23.2862 37.1072C23.6688 36.8863 24.1581 37.0174 24.379 37.4C24.5999 37.7826 24.4688 38.2719 24.0862 38.4928L22.7005 39.2928C22.3179 39.5137 21.8286 39.3826 21.6077 39C21.3868 38.6174 21.5179 38.1281 21.9005 37.9072L23.2862 37.1072ZM42.3923 27C42.1714 26.6174 41.6821 26.4863 41.2995 26.7072L39.9138 27.5072C39.5312 27.7281 39.4001 28.2174 39.621 28.6C39.8419 28.9826 40.3312 29.1137 40.7138 28.8928L42.0995 28.0928C42.4821 27.8719 42.6132 27.3826 42.3923 27ZM22.4 32.2C22.8418 32.2 23.2 32.5582 23.2 33C23.2 33.4418 22.8418 33.8 22.4 33.8H20.8C20.3582 33.8 20 33.4418 20 33C20 32.5582 20.3582 32.2 20.8 32.2H22.4ZM44 33C44 32.5582 43.6418 32.2 43.2 32.2H41.6C41.1582 32.2 40.8 32.5582 40.8 33C40.8 33.4418 41.1582 33.8 41.6 33.8H43.2C43.6418 33.8 44 33.4418 44 33ZM24.0862 27.5072C24.4688 27.7281 24.5999 28.2174 24.379 28.6C24.1581 28.9826 23.6688 29.1137 23.2862 28.8928L21.9005 28.0928C21.5179 27.8719 21.3868 27.3826 21.6077 27C21.8286 26.6174 22.3179 26.4863 22.7005 26.7072L24.0862 27.5072ZM42.3923 39C42.6132 38.6174 42.4821 38.1281 42.0995 37.9072L40.7138 37.1072C40.3312 36.8863 39.8419 37.0174 39.621 37.4C39.4001 37.7826 39.5312 38.2719 39.9138 38.4928L41.2995 39.2928C41.6821 39.5137 42.1714 39.3826 42.3923 39ZM27.8928 24.2862C28.1137 24.6688 27.9826 25.1581 27.6 25.379C27.2174 25.5999 26.7281 25.4688 26.5072 25.0862L25.7072 23.7005C25.4863 23.3179 25.6174 22.8286 26 22.6077C26.3826 22.3868 26.8719 22.5179 27.0928 22.9005L27.8928 24.2862ZM38 43.3923C38.3826 43.1714 38.5137 42.6821 38.2928 42.2995L37.4928 40.9138C37.2719 40.5312 36.7826 40.4001 36.4 40.621C36.0174 40.8419 35.8863 41.3312 36.1072 41.7138L36.9072 43.0995C37.1281 43.4821 37.6174 43.6132 38 43.3923Z" fill="#595959"/>
<mask id="mask0_16_76" style="mask-type:luminance" maskUnits="userSpaceOnUse" x="20" y="21" width="24" height="24">
<path fill-rule="evenodd" clip-rule="evenodd" d="M32 21C31.5582 21 31.2 21.3582 31.2 21.8V23.4C31.2 23.8418 31.5582 24.2 32 24.2C32.4418 24.2 32.8 23.8418 32.8 23.4V21.8C32.8 21.3582 32.4418 21 32 21ZM25.6 33C25.6 36.5346 28.4654 39.4 32 39.4C35.5346 39.4 38.4 36.5346 38.4 33C38.4 29.4654 35.5346 26.6 32 26.6C28.4654 26.6 25.6 29.4654 25.6 33ZM36.8 33C36.8 35.651 34.651 37.8 32 37.8C29.349 37.8 27.2 35.651 27.2 33C27.2 30.349 29.349 28.2 32 28.2C34.651 28.2 36.8 30.349 36.8 33ZM31.2 42.6C31.2 42.1582 31.5582 41.8 32 41.8C32.4418 41.8 32.8 42.1582 32.8 42.6V44.2C32.8 44.6418 32.4418 45 32 45C31.5582 45 31.2 44.6418 31.2 44.2V42.6ZM26.5072 40.9138C26.7281 40.5312 27.2174 40.4001 27.6 40.621C27.9826 40.8419 28.1137 41.3312 27.8928 41.7138L27.0928 43.0995C26.8719 43.4821 26.3826 43.6132 26 43.3923C25.6174 43.1714 25.4863 42.6821 25.7072 42.2995L26.5072 40.9138ZM38 22.6077C37.6174 22.3868 37.1281 22.5179 36.9072 22.9005L36.1072 24.2862C35.8863 24.6688 36.0174 25.1581 36.4 25.379C36.7826 25.5999 37.2719 25.4688 37.4928 25.0862L38.2928 23.7005C38.5137 23.3179 38.3826 22.8286 38 22.6077ZM23.2862 37.1072C23.6688 36.8863 24.1581 37.0174 24.379 37.4C24.5999 37.7826 24.4688 38.2719 24.0862 38.4928L22.7005 39.2928C22.3179 39.5137 21.8286 39.3826 21.6077 39C21.3868 38.6174 21.5179 38.1281 21.9005 37.9072L23.2862 37.1072ZM42.3923 27C42.1714 26.6174 41.6821 26.4863 41.2995 26.7072L39.9138 27.5072C39.5312 27.7281 39.4001 28.2174 39.621 28.6C39.8419 28.9826 40.3312 29.1137 40.7138 28.8928L42.0995 28.0928C42.4821 27.8719 42.6132 27.3826 42.3923 27ZM22.4 32.2C22.8418 32.2 23.2 32.5582 23.2 33C23.2 33.4418 22.8418 33.8 22.4 33.8H20.8C20.3582 33.8 20 33.4418 20 33C20 32.5582 20.3582 32.2 20.8 32.2H22.4ZM44 33C44 32.5582 43.6418 32.2 43.2 32.2H41.6C41.1582 32.2 40.8 32.5582 40.8 33C40.8 33.4418 41.1582 33.8 41.6 33.8H43.2C43.6418 33.8 44 33.4418 44 33ZM24.0862 27.5072C24.4688 27.7281 24.5999 28.2174 24.379 28.6C24.1581 28.9826 23.6688 29.1137 23.2862 28.8928L21.9005 28.0928C21.5179 27.8719 21.3868 27.3826 21.6077 27C21.8286 26.6174 22.3179 26.4863 22.7005 26.7072L24.0862 27.5072ZM42.3923 39C42.6132 38.6174 42.4821 38.1281 42.0995 37.9072L40.7138 37.1072C40.3312 36.8863 39.8419 37.0174 39.621 37.4C39.4001 37.7826 39.5312 38.2719 39.9138 38.4928L41.2995 39.2928C41.6821 39.5137 42.1714 39.3826 42.3923 39ZM27.8928 24.2862C28.1137 24.6688 27.9826 25.1581 27.6 25.379C27.2174 25.5999 26.7281 25.4688 26.5072 25.0862L25.7072 23.7005C25.4863 23.3179 25.6174 22.8286 26 22.6077C26.3826 22.3868 26.8719 22.5179 27.0928 22.9005L27.8928 24.2862ZM38 43.3923C38.3826 43.1714 38.5137 42.6821 38.2928 42.2995L37.4928 40.9138C37.2719 40.5312 36.7826 40.4001 36.4 40.621C36.0174 40.8419 35.8863 41.3312 36.1072 41.7138L36.9072 43.0995C37.1281 43.4821 37.6174 43.6132 38 43.3923Z" fill="white"/>
</mask>
<g mask="url(#mask0_16_76)">
<rect x="16" y="17" width="32" height="32" fill="white"/>
</g>
</svg>
